<?xml version="1.0" standalone="no"?><!DOCTYPE svg PUBLIC "-//W3C//DTD SVG 1.1//EN" "http://www.w3.org/Graphics/SVG/1.1/DTD/svg11.dtd"><svg t="1708747406168" class="icon" viewBox="0 0 1063 1024" version="1.1" xmlns="http://www.w3.org/2000/svg" p-id="2800" xmlns:xlink="http://www.w3.org/1999/xlink" width="207.6171875" height="200"><path d="M0 988.542936h1063.711911v35.457064H0zM835.01385 190.759003H744.598338l-126.404432-126.404432L585.041551 97.506925 487.534626 0 296.775623 190.759003H210.969529l-168.598338 691.412742h961.240997z m-216.819944-76.232687l76.232687 76.232687h-16.132964l-68.254848-68.254848z m10.105263 76.232687h-86.515235L585.041551 147.67867zM487.534626 50.171745l72.509695 72.33241-68.254847 68.254848h-145.019391zM726.869806 418.038781v100.698061a195.01385 195.01385 0 0 1-390.027701 0v-100.698061a53.185596 53.185596 0 1 1 35.457064 0v100.698061a159.556787 159.556787 0 0 0 319.113573 0v-100.698061a53.185596 53.185596 0 1 1 35.457064 0z" fill="#1296db" p-id="2801"></path><path d="M709.141274 368.044321m-17.728532 0a17.728532 17.728532 0 1 0 35.457064 0 17.728532 17.728532 0 1 0-35.457064 0Z" fill="#1296db" p-id="2802"></path><path d="M354.570637 368.044321m-17.728532 0a17.728532 17.728532 0 1 0 35.457064 0 17.728532 17.728532 0 1 0-35.457064 0Z" fill="#1296db" p-id="2803"></path></svg>